<!-- filepath: d:\Work\InvoIQ\public\icons\logo-v1.svg -->
<svg width="180" height="48" viewBox="0 0 180 48" fill="none" xmlns="http://www.w3.org/2000/svg">
  <!-- Icon -->
  <rect width="48" height="48" rx="10" fill="#009966"/>
  <path d="M12 16C12 15.4477 12.4477 15 13 15H35C35.5523 15 36 15.4477 36 16V32C36 32.5523 35.5523 33 35 33H13C12.4477 33 12 32.5523 12 32V16Z" fill="white"/>
  <rect x="16" y="20" width="16" height="2" rx="1" fill="#009966"/>
  <rect x="16" y="24" width="11" height="2" rx="1" fill="#009966"/>
  <rect x="16" y="28" width="13" height="2" rx="1" fill="#009966"/>
  <circle cx="36" cy="16" r="6" fill="#10B981"/>
  <path d="M33.5 16L35 17.5L38.5 14" stroke="white" stroke-width="2" stroke-linecap="round" stroke-linejoin="round"/>
  
  <!-- Text -->
  <text x="58" y="32" font-family="Arial, sans-serif" font-size="26" font-weight="700" fill="#1E293B">InvoIQ</text>
  <text x="58" y="42" font-family="Arial, sans-serif" font-size="9" font-weight="400" fill="#64748B" letter-spacing="1.5">AI-POWERED INVOICING</text>
</svg>